<?xml version="1.0" standalone="no"?>
<!DOCTYPE svg PUBLIC "-//W3C//DTD SVG 20010904//EN"
 "http://www.w3.org/TR/2001/REC-SVG-20010904/DTD/svg10.dtd">
<svg version="1.0" xmlns="http://www.w3.org/2000/svg"
 width="1080.000000pt" height="635.000000pt" viewBox="0 0 1080.000000 635.000000"
 preserveAspectRatio="xMidYMid meet">
<metadata>
Created by potrace 1.16, written by Peter Selinger 2001-2019
</metadata>
<g transform="translate(0.000000,635.000000) scale(0.100000,-0.100000)"
fill="#000000" stroke="none">
<path d="M0 3175 l0 -3175 5400 0 5400 0 0 3175 0 3175 -5400 0 -5400 0 0
-3175z m6158 1223 l-3 -513 -28 -80 c-72 -204 -216 -366 -407 -458 -136 -65
-179 -71 -505 -72 l-290 0 0 470 0 470 24 65 c13 36 35 83 49 105 60 98 192
189 310 214 31 6 158 11 312 11 l260 0 0 -294 c0 -161 -5 -317 -10 -347 -34
-176 -190 -339 -363 -379 -23 -5 -95 -10 -160 -10 l-118 0 3 78 3 77 130 5
c112 4 137 8 180 30 61 30 125 94 156 157 23 46 24 59 27 286 l3 238 -208 -3
c-200 -3 -210 -4 -263 -29 -67 -32 -131 -97 -162 -164 -22 -49 -23 -58 -26
-439 l-3 -388 228 4 c195 5 236 8 283 25 178 65 298 167 368 313 66 140 67
149 67 590 l0 395 -350 0 c-303 0 -359 -3 -414 -18 -211 -58 -374 -213 -442
-422 -10 -30 -14 -168 -19 -540 l-5 -500 -73 -3 -73 -3 3 508 c3 449 6 515 21
568 79 270 287 474 555 545 59 16 118 18 505 19 l438 1 -3 -512z m-590 -251
c-3 -130 -4 -135 -32 -171 -41 -54 -77 -66 -201 -66 l-107 0 4 128 c3 118 5
132 28 165 40 60 87 77 208 77 l104 0 -4 -133z m-535 -1234 c20 -49 70 -169
111 -268 42 -98 76 -180 76 -182 0 -2 -39 -3 -87 -3 l-88 0 -54 130 c-30 72
-58 127 -62 123 -4 -5 -31 -63 -59 -130 l-52 -123 -40 0 c-28 0 -39 4 -35 13
22 53 218 511 223 518 14 24 34 2 67 -78z m1321 47 c44 -17 89 -30 100 -28 11
2 30 17 41 35 41 66 46 48 43 -174 -2 -125 -7 -208 -13 -208 -5 0 -19 34 -30
75 -27 95 -48 135 -96 181 -61 59 -121 83 -215 87 -62 3 -89 0 -115 -13 -43
-22 -87 -62 -105 -97 -22 -42 -18 -119 9 -159 27 -41 133 -122 213 -164 l57
-30 -169 -3 -169 -3 -23 28 c-13 15 -35 51 -48 78 -31 64 -33 169 -5 232 23
49 89 124 136 153 95 59 255 63 389 10z m-2874 1 c0 -4 -20 -11 -44 -14 -63
-9 -93 -26 -111 -62 -13 -28 -15 -89 -15 -397 0 -204 5 -391 11 -427 21 -129
70 -200 168 -243 66 -29 203 -28 291 2 165 56 230 163 230 383 l0 67 41 0 42
0 -7 -95 c-17 -224 -79 -334 -231 -406 -137 -64 -366 -63 -502 2 -107 51 -185
161 -203 285 -5 38 -10 218 -10 400 0 182 -4 356 -10 385 -13 70 -40 94 -114
103 -31 4 -56 12 -56 17 0 5 107 9 260 9 143 0 260 -4 260 -9z m780 0 c0 -5
-21 -12 -47 -16 -111 -16 -123 -44 -123 -295 l0 -190 -40 0 -40 0 0 194 c0
112 -5 206 -11 224 -14 40 -42 58 -107 67 -109 15 -46 25 158 25 116 0 210 -4
210 -9z m3475 -3 c2 -7 5 -66 8 -130 5 -142 -9 -157 -44 -47 -17 55 -30 76
-57 97 l-35 27 -234 3 -233 3 -2 -223 -3 -223 -81 -3 -82 -3 -4 208 c-3 114
-8 216 -12 226 -12 25 -59 47 -117 54 -135 16 -6 23 421 23 368 0 471 -3 475
-12z m-97 -572 c2 -191 1 -207 -15 -204 -11 2 -20 20 -29 57 -18 83 -70 120
-171 121 -30 0 -33 3 -33 30 0 28 3 30 38 30 56 0 112 19 137 45 12 14 27 49
34 80 8 34 17 55 24 52 9 -3 13 -64 15 -211z m-2914 -141 l-6 -25 212 0 212 0
-6 25 -7 26 88 -3 87 -3 63 -150 c75 -179 119 -268 144 -291 11 -9 40 -24 66
-33 27 -9 49 -21 51 -26 3 -13 -467 -14 -470 -1 -2 5 19 14 45 21 27 7 54 18
60 24 25 25 11 103 -41 226 l-50 120 -242 0 -243 0 -50 -115 c-61 -140 -72
-209 -36 -234 13 -9 45 -19 71 -22 31 -4 48 -11 48 -21 0 -11 -33 -13 -190
-11 -118 2 -190 7 -190 13 0 6 21 17 46 25 58 20 89 60 145 188 23 53 51 120
64 147 12 28 30 71 41 97 18 45 21 48 57 48 35 0 37 -2 31 -25z m1846 -22 c76
-124 61 -267 -40 -377 -117 -126 -286 -156 -500 -86 -53 17 -110 30 -130 28
-29 -3 -36 -8 -44 -35 -5 -18 -15 -33 -22 -33 -11 0 -14 40 -14 211 0 228 8
257 40 143 40 -139 84 -198 187 -249 101 -49 247 -47 324 4 59 40 89 93 89
157 0 105 -40 153 -220 262 l-35 22 167 0 168 0 30 -47z m570 -161 c0 -164 3
-212 14 -228 13 -18 28 -19 218 -19 143 0 214 4 241 13 47 17 114 86 158 162
20 35 41 60 51 60 14 0 9 -23 -35 -150 l-52 -150 -472 0 c-414 0 -473 2 -473
15 0 11 11 15 40 15 53 0 105 22 121 52 10 16 15 84 17 231 l4 207 84 0 84 0
0 -208z m-2150 -467 c61 -63 183 -84 268 -45 52 24 53 5 1 -25 -50 -30 -187
-29 -248 2 -53 26 -65 22 -30 -11 34 -31 117 -50 193 -43 46 4 56 3 42 -5 -24
-13 -167 -3 -251 17 -33 8 -82 18 -110 21 -27 4 -51 7 -52 8 -1 1 5 18 15 37
16 33 19 34 72 34 51 0 55 2 52 23 -5 31 9 28 48 -13z m886 9 l-7 -27 49 7
c47 6 51 5 77 -25 14 -18 22 -35 18 -39 -13 -11 -240 -52 -260 -47 -14 4 -13
5 5 6 28 1 74 24 91 45 17 20 10 20 -37 0 -58 -24 -131 -33 -185 -22 -29 6
-45 14 -40 21 4 6 0 8 -9 4 -17 -6 -58 18 -58 34 0 5 17 0 37 -11 42 -23 124
-27 187 -9 21 6 57 28 80 50 48 45 61 49 52 13z m-1206 -43 c0 -5 -3 -17 -6
-26 -6 -15 -41 -16 -388 -10 -603 8 -889 16 -901 23 -12 9 365 17 898 20 236
1 397 -2 397 -7z m2845 -10 l110 -8 -100 -2 c-804 -15 -1371 -19 -1382 -9 -7
6 -13 17 -13 26 0 14 67 14 638 8 350 -5 687 -11 747 -15z m-2110 -137 c8 -20
15 -69 16 -108 1 -68 1 -70 14 -41 l14 30 1 -32 c0 -36 -12 -68 -35 -98 -16
-20 -16 -20 -36 4 -23 28 -24 59 -4 97 17 33 20 64 5 64 -5 0 -10 -4 -10 -9 0
-5 -16 -16 -35 -25 -31 -15 -38 -15 -70 -2 -46 20 -45 36 4 36 49 0 87 29 102
81 7 21 14 39 15 39 2 0 11 -16 19 -36z"/>
</g>
</svg>
